<mxfile host="65bd71144e">
    <diagram id="gw2JLppOP-cWkTk1DFTF" name="Page-1">
        <mxGraphModel dx="822" dy="368" grid="1" gridSize="10" guides="1" tooltips="1" connect="1" arrows="1" fold="1" page="1" pageScale="1" pageWidth="850" pageHeight="1100" background="#B3B3B3" math="0" shadow="1">
            <root>
                <mxCell id="0"/>
                <mxCell id="1" parent="0"/>
                <mxCell id="12" value="" style="ellipse;whiteSpace=wrap;html=1;fontSize=36;" vertex="1" parent="1">
                    <mxGeometry x="15" y="185" width="50" height="50" as="geometry"/>
                </mxCell>
                <mxCell id="2" value="&lt;div style=&quot;text-align: justify;&quot;&gt;&lt;br&gt;&lt;/div&gt;" style="rounded=0;whiteSpace=wrap;html=1;" vertex="1" parent="1">
                    <mxGeometry x="406" y="171" width="240" height="60" as="geometry"/>
                </mxCell>
                <mxCell id="3" value="" style="rounded=0;whiteSpace=wrap;html=1;" vertex="1" parent="1">
                    <mxGeometry x="406" y="271" width="240" height="60" as="geometry"/>
                </mxCell>
                <mxCell id="4" value="" style="rounded=0;whiteSpace=wrap;html=1;" vertex="1" parent="1">
                    <mxGeometry x="406" y="481" width="240" height="60" as="geometry"/>
                </mxCell>
                <mxCell id="67" value="" style="edgeStyle=none;html=1;fontFamily=Lucida Console;fontSize=8;" edge="1" parent="1" source="5">
                    <mxGeometry relative="1" as="geometry">
                        <mxPoint x="526" y="480" as="targetPoint"/>
                    </mxGeometry>
                </mxCell>
                <mxCell id="5" value="" style="rounded=0;whiteSpace=wrap;html=1;" vertex="1" parent="1">
                    <mxGeometry x="406" y="376" width="240" height="60" as="geometry"/>
                </mxCell>
                <mxCell id="6" value="&lt;h1&gt;EFPSE FSM&lt;/h1&gt;&lt;div&gt;&lt;br&gt;&lt;/div&gt;&lt;p&gt;This is a simplified Diagram that attempts to explain visually the steps going on during a fsm.&lt;/p&gt;" style="text;html=1;strokeColor=none;fillColor=none;spacing=5;spacingTop=-20;whiteSpace=wrap;overflow=hidden;rounded=0;align=left;" vertex="1" parent="1">
                    <mxGeometry x="40" y="30" width="210" height="120" as="geometry"/>
                </mxCell>
                <mxCell id="7" value="LOAD" style="swimlane;fontStyle=0;childLayout=stackLayout;horizontal=1;startSize=30;horizontalStack=0;resizeParent=1;resizeParentMax=0;resizeLast=0;collapsible=1;marginBottom=0;whiteSpace=wrap;html=1;" vertex="1" parent="1">
                    <mxGeometry x="110" y="165" width="140" height="90" as="geometry"/>
                </mxCell>
                <mxCell id="9" value="Load images onto stack" style="text;strokeColor=none;fillColor=none;align=left;verticalAlign=middle;spacingLeft=4;spacingRight=4;overflow=hidden;points=[[0,0.5],[1,0.5]];portConstraint=eastwest;rotatable=0;whiteSpace=wrap;html=1;" vertex="1" parent="7">
                    <mxGeometry y="30" width="140" height="30" as="geometry"/>
                </mxCell>
                <mxCell id="10" value="Load sounds onto stack" style="text;strokeColor=none;fillColor=none;align=left;verticalAlign=middle;spacingLeft=4;spacingRight=4;overflow=hidden;points=[[0,0.5],[1,0.5]];portConstraint=eastwest;rotatable=0;whiteSpace=wrap;html=1;" vertex="1" parent="7">
                    <mxGeometry y="60" width="140" height="30" as="geometry"/>
                </mxCell>
                <mxCell id="13" style="edgeStyle=none;html=1;entryX=0;entryY=0.5;entryDx=0;entryDy=0;fontSize=36;" edge="1" parent="1" source="11" target="9">
                    <mxGeometry relative="1" as="geometry"/>
                </mxCell>
                <mxCell id="11" value="&lt;font style=&quot;font-size: 36px;&quot;&gt;1&lt;/font&gt;" style="text;html=1;strokeColor=none;fillColor=none;align=center;verticalAlign=middle;whiteSpace=wrap;rounded=0;" vertex="1" parent="1">
                    <mxGeometry x="10" y="195" width="60" height="30" as="geometry"/>
                </mxCell>
                <mxCell id="16" value="When the FSM is first loaded, images and sounds are loaded into their own respective lists" style="text;html=1;strokeColor=none;fillColor=none;spacing=5;spacingTop=-20;whiteSpace=wrap;overflow=hidden;rounded=0;fontSize=14;" vertex="1" parent="1">
                    <mxGeometry x="30" y="570" width="290" height="50" as="geometry"/>
                </mxCell>
                <mxCell id="17" value="&lt;font face=&quot;Lucida Console&quot;&gt;&lt;font style=&quot;font-size: 11px;&quot;&gt;&lt;font style=&quot;&quot;&gt;image cat 0 3&lt;br&gt;image flea&lt;br&gt;sound meow&lt;br&gt;&lt;/font&gt;sound bell&lt;/font&gt;&lt;br&gt;&lt;/font&gt;" style="shape=document;whiteSpace=wrap;html=1;boundedLbl=1;fontSize=14;align=left;" vertex="1" parent="1">
                    <mxGeometry x="110" y="310" width="140" height="160" as="geometry"/>
                </mxCell>
                <mxCell id="19" value="&lt;h1&gt;&lt;font style=&quot;font-size: 11px;&quot;&gt;cat.states&lt;/font&gt;&lt;/h1&gt;" style="text;html=1;strokeColor=none;fillColor=none;spacing=5;spacingTop=-20;whiteSpace=wrap;overflow=hidden;rounded=0;fontFamily=Lucida Console;fontSize=12;" vertex="1" parent="1">
                    <mxGeometry x="106" y="281" width="190" height="120" as="geometry"/>
                </mxCell>
                <mxCell id="23" style="edgeStyle=none;html=1;fontFamily=Lucida Console;fontSize=11;" edge="1" parent="1" source="20">
                    <mxGeometry relative="1" as="geometry">
                        <mxPoint x="270" y="510" as="targetPoint"/>
                        <Array as="points">
                            <mxPoint x="270" y="350"/>
                        </Array>
                    </mxGeometry>
                </mxCell>
                <mxCell id="20" value="" style="shape=curlyBracket;whiteSpace=wrap;html=1;rounded=1;flipH=1;labelPosition=right;verticalLabelPosition=middle;align=left;verticalAlign=middle;fontFamily=Lucida Console;fontSize=11;" vertex="1" parent="1">
                    <mxGeometry x="199" y="335" width="20" height="30" as="geometry"/>
                </mxCell>
                <mxCell id="22" style="edgeStyle=none;html=1;fontFamily=Lucida Console;fontSize=11;" edge="1" parent="1" source="21">
                    <mxGeometry relative="1" as="geometry">
                        <mxPoint x="130" y="510" as="targetPoint"/>
                        <Array as="points">
                            <mxPoint x="260" y="385"/>
                            <mxPoint x="260" y="480"/>
                            <mxPoint x="130" y="480"/>
                        </Array>
                    </mxGeometry>
                </mxCell>
                <mxCell id="21" value="" style="shape=curlyBracket;whiteSpace=wrap;html=1;rounded=1;flipH=1;labelPosition=right;verticalLabelPosition=middle;align=left;verticalAlign=middle;fontFamily=Lucida Console;fontSize=11;" vertex="1" parent="1">
                    <mxGeometry x="198" y="371" width="22" height="27" as="geometry"/>
                </mxCell>
                <mxCell id="24" value="cat0,cat1,cat2,cat3,flea" style="shape=partialRectangle;whiteSpace=wrap;html=1;bottom=1;right=1;left=1;top=0;fillColor=none;routingCenterX=-0.5;fontFamily=Lucida Console;fontSize=11;" vertex="1" parent="1">
                    <mxGeometry x="40" y="530" width="170" height="20" as="geometry"/>
                </mxCell>
                <mxCell id="26" value="meow,bell" style="shape=partialRectangle;whiteSpace=wrap;html=1;bottom=1;right=1;left=1;top=0;fillColor=none;routingCenterX=-0.5;fontFamily=Lucida Console;fontSize=11;" vertex="1" parent="1">
                    <mxGeometry x="226" y="530" width="84" height="20" as="geometry"/>
                </mxCell>
                <mxCell id="27" value="&lt;h1&gt;&lt;font style=&quot;font-size: 14px;&quot;&gt;0&lt;/font&gt;&lt;/h1&gt;" style="text;html=1;strokeColor=none;fillColor=none;spacing=5;spacingTop=-20;whiteSpace=wrap;overflow=hidden;rounded=0;fontFamily=Lucida Console;fontSize=11;" vertex="1" parent="1">
                    <mxGeometry x="50" y="500" width="20" height="30" as="geometry"/>
                </mxCell>
                <mxCell id="28" value="&lt;h1&gt;&lt;font style=&quot;font-size: 14px;&quot;&gt;1&lt;/font&gt;&lt;/h1&gt;" style="text;html=1;strokeColor=none;fillColor=none;spacing=5;spacingTop=-20;whiteSpace=wrap;overflow=hidden;rounded=0;fontFamily=Lucida Console;fontSize=11;" vertex="1" parent="1">
                    <mxGeometry x="80" y="500" width="20" height="30" as="geometry"/>
                </mxCell>
                <mxCell id="29" value="&lt;h1&gt;&lt;font style=&quot;font-size: 14px;&quot;&gt;2&lt;/font&gt;&lt;/h1&gt;&lt;span style=&quot;color: rgba(0, 0, 0, 0); font-family: monospace; font-size: 0px;&quot;&gt;%3CmxGraphModel%3E%3Croot%3E%3CmxCell%20id%3D%220%22%2F%3E%3CmxCell%20id%3D%221%22%20parent%3D%220%22%2F%3E%3CmxCell%20id%3D%222%22%20value%3D%22%26lt%3Bh1%26gt%3B%26lt%3Bfont%20style%3D%26quot%3Bfont-size%3A%2014px%3B%26quot%3B%26gt%3B0%26lt%3B%2Ffont%26gt%3B%26lt%3B%2Fh1%26gt%3B%22%20style%3D%22text%3Bhtml%3D1%3BstrokeColor%3Dnone%3BfillColor%3Dnone%3Bspacing%3D5%3BspacingTop%3D-20%3BwhiteSpace%3Dwrap%3Boverflow%3Dhidden%3Brounded%3D0%3BfontFamily%3DLucida%20Console%3BfontSize%3D11%3B%22%20vertex%3D%221%22%20parent%3D%221%22%3E%3CmxGeometry%20x%3D%2250%22%20y%3D%22500%22%20width%3D%2220%22%20height%3D%2230%22%20as%3D%22geometry%22%2F%3E%3C%2FmxCell%3E%3C%2Froot%3E%3C%2FmxGraphModel%3E&lt;/span&gt;&lt;span style=&quot;color: rgba(0, 0, 0, 0); font-family: monospace; font-size: 0px;&quot;&gt;%3CmxGraphModel%3E%3Croot%3E%3CmxCell%20id%3D%220%22%2F%3E%3CmxCell%20id%3D%221%22%20parent%3D%220%22%2F%3E%3CmxCell%20id%3D%222%22%20value%3D%22%26lt%3Bh1%26gt%3B%26lt%3Bfont%20style%3D%26quot%3Bfont-size%3A%2014px%3B%26quot%3B%26gt%3B0%26lt%3B%2Ffont%26gt%3B%26lt%3B%2Fh1%26gt%3B%22%20style%3D%22text%3Bhtml%3D1%3BstrokeColor%3Dnone%3BfillColor%3Dnone%3Bspacing%3D5%3BspacingTop%3D-20%3BwhiteSpace%3Dwrap%3Boverflow%3Dhidden%3Brounded%3D0%3BfontFamily%3DLucida%20Console%3BfontSize%3D11%3B%22%20vertex%3D%221%22%20parent%3D%221%22%3E%3CmxGeometry%20x%3D%2250%22%20y%3D%22500%22%20width%3D%2220%22%20height%3D%2230%22%20as%3D%22geometry%22%2F%3E%3C%2FmxCell%3E%3C%2Froot%3E%3C%2FmxGraphModel%3E&lt;/span&gt;" style="text;html=1;strokeColor=none;fillColor=none;spacing=5;spacingTop=-20;whiteSpace=wrap;overflow=hidden;rounded=0;fontFamily=Lucida Console;fontSize=11;" vertex="1" parent="1">
                    <mxGeometry x="115" y="500" width="20" height="30" as="geometry"/>
                </mxCell>
                <mxCell id="30" value="&lt;h1&gt;&lt;font style=&quot;font-size: 14px;&quot;&gt;3&lt;/font&gt;&lt;/h1&gt;&lt;div&gt;&lt;font style=&quot;font-size: 14px;&quot;&gt;&lt;br&gt;&lt;/font&gt;&lt;/div&gt;" style="text;html=1;strokeColor=none;fillColor=none;spacing=5;spacingTop=-20;whiteSpace=wrap;overflow=hidden;rounded=0;fontFamily=Lucida Console;fontSize=11;" vertex="1" parent="1">
                    <mxGeometry x="150" y="500" width="20" height="30" as="geometry"/>
                </mxCell>
                <mxCell id="31" value="&lt;h1&gt;&lt;font style=&quot;font-size: 14px;&quot;&gt;4&lt;/font&gt;&lt;/h1&gt;" style="text;html=1;strokeColor=none;fillColor=none;spacing=5;spacingTop=-20;whiteSpace=wrap;overflow=hidden;rounded=0;fontFamily=Lucida Console;fontSize=11;" vertex="1" parent="1">
                    <mxGeometry x="179" y="500" width="20" height="30" as="geometry"/>
                </mxCell>
                <mxCell id="32" value="&lt;h1&gt;&lt;font style=&quot;font-size: 14px;&quot;&gt;0&lt;/font&gt;&lt;/h1&gt;" style="text;html=1;strokeColor=none;fillColor=none;spacing=5;spacingTop=-20;whiteSpace=wrap;overflow=hidden;rounded=0;fontFamily=Lucida Console;fontSize=11;" vertex="1" parent="1">
                    <mxGeometry x="240" y="500" width="20" height="30" as="geometry"/>
                </mxCell>
                <mxCell id="33" value="&lt;h1&gt;&lt;font style=&quot;font-size: 14px;&quot;&gt;1&lt;/font&gt;&lt;/h1&gt;&lt;div&gt;&lt;font style=&quot;font-size: 14px;&quot;&gt;&lt;br&gt;&lt;/font&gt;&lt;/div&gt;" style="text;html=1;strokeColor=none;fillColor=none;spacing=5;spacingTop=-20;whiteSpace=wrap;overflow=hidden;rounded=0;fontFamily=Lucida Console;fontSize=11;" vertex="1" parent="1">
                    <mxGeometry x="276" y="500" width="20" height="30" as="geometry"/>
                </mxCell>
                <mxCell id="35" value="" style="endArrow=classic;html=1;fontFamily=Lucida Console;fontSize=14;exitX=0.514;exitY=1.056;exitDx=0;exitDy=0;exitPerimeter=0;" edge="1" parent="1" source="10">
                    <mxGeometry width="50" height="50" relative="1" as="geometry">
                        <mxPoint x="410" y="390" as="sourcePoint"/>
                        <mxPoint x="182" y="280" as="targetPoint"/>
                    </mxGeometry>
                </mxCell>
                <mxCell id="38" style="edgeStyle=none;html=1;fontFamily=Lucida Console;fontSize=14;exitX=0.1;exitY=0.5;exitDx=0;exitDy=0;exitPerimeter=0;" edge="1" parent="1" source="36">
                    <mxGeometry relative="1" as="geometry">
                        <mxPoint x="534" y="152" as="targetPoint"/>
                        <mxPoint x="135" y="650.5" as="sourcePoint"/>
                        <Array as="points">
                            <mxPoint x="175" y="695"/>
                            <mxPoint x="320" y="695"/>
                            <mxPoint x="320" y="120"/>
                            <mxPoint x="534" y="120"/>
                        </Array>
                    </mxGeometry>
                </mxCell>
                <mxCell id="36" value="" style="shape=curlyBracket;whiteSpace=wrap;html=1;rounded=1;flipH=1;labelPosition=right;verticalLabelPosition=middle;align=left;verticalAlign=middle;fontFamily=Lucida Console;fontSize=14;rotation=90;" vertex="1" parent="1">
                    <mxGeometry x="165" y="490" width="20" height="275" as="geometry"/>
                </mxCell>
                <mxCell id="39" value="IDLE" style="text;html=1;strokeColor=none;fillColor=none;align=center;verticalAlign=middle;whiteSpace=wrap;rounded=0;fontFamily=Lucida Console;fontSize=14;" vertex="1" parent="1">
                    <mxGeometry x="406" y="141" width="50" height="30" as="geometry"/>
                </mxCell>
                <mxCell id="40" value="FLEASCRATCH" style="text;html=1;strokeColor=none;fillColor=none;align=center;verticalAlign=middle;whiteSpace=wrap;rounded=0;fontFamily=Lucida Console;fontSize=14;" vertex="1" parent="1">
                    <mxGeometry x="425" y="241" width="50" height="30" as="geometry"/>
                </mxCell>
                <mxCell id="41" value="DEATH" style="text;html=1;strokeColor=none;fillColor=none;align=center;verticalAlign=middle;whiteSpace=wrap;rounded=0;fontFamily=Lucida Console;fontSize=14;" vertex="1" parent="1">
                    <mxGeometry x="403" y="346" width="50" height="30" as="geometry"/>
                </mxCell>
                <mxCell id="42" value="DEAD" style="text;html=1;strokeColor=none;fillColor=none;align=center;verticalAlign=middle;whiteSpace=wrap;rounded=0;fontFamily=Lucida Console;fontSize=14;" vertex="1" parent="1">
                    <mxGeometry x="400" y="456" width="50" height="30" as="geometry"/>
                </mxCell>
                <mxCell id="49" value="&lt;div style=&quot;text-align: justify;&quot;&gt;state IDLE FLEASCRATCH 0&lt;/div&gt;&lt;div style=&quot;text-align: justify;&quot;&gt;frame 0 2 0 0 0 NONE&lt;/div&gt;&lt;div style=&quot;text-align: justify;&quot;&gt;frame 0 2 0 0 0 SOUND 0&lt;/div&gt;&lt;div style=&quot;text-align: justify;&quot;&gt;&lt;span style=&quot;background-color: initial;&quot;&gt;frame 0 2 0 0 0 READY&lt;/span&gt;&lt;br&gt;&lt;/div&gt;" style="text;html=1;strokeColor=none;fillColor=none;align=center;verticalAlign=middle;whiteSpace=wrap;rounded=0;fontFamily=Lucida Console;fontSize=8;" vertex="1" parent="1">
                    <mxGeometry x="348" y="150" width="240" height="85" as="geometry"/>
                </mxCell>
                <mxCell id="50" value="&lt;div style=&quot;text-align: justify;&quot;&gt;state FLEASCRATCH IDLE 0&lt;/div&gt;&lt;div style=&quot;text-align: justify;&quot;&gt;frame 1 2 0 0 0 NONE&lt;/div&gt;&lt;div style=&quot;text-align: justify;&quot;&gt;frame 1 2 0 0 0 PARTICLES 4 1,3000,0,64,0 0,64,0&lt;/div&gt;&lt;div style=&quot;text-align: justify;&quot;&gt;frame 1 2 0 0 0 NONE&lt;/div&gt;" style="text;html=1;strokeColor=none;fillColor=none;align=center;verticalAlign=middle;whiteSpace=wrap;rounded=0;fontFamily=Lucida Console;fontSize=8;" vertex="1" parent="1">
                    <mxGeometry x="397" y="263" width="256" height="59" as="geometry"/>
                </mxCell>
                <mxCell id="51" value="&lt;div style=&quot;text-align: justify;&quot;&gt;state DEATH DEAD 0&lt;/div&gt;&lt;div style=&quot;text-align: justify;&quot;&gt;frame 2 0.166 0 0 0 NONE&lt;/div&gt;&lt;div style=&quot;text-align: justify;&quot;&gt;frame 2 0.166 0 0 0 SOUND 1&lt;/div&gt;&lt;div style=&quot;text-align: justify;&quot;&gt;frame 2 0.166 0 0 0 NONE&lt;/div&gt;" style="text;html=1;strokeColor=none;fillColor=none;align=center;verticalAlign=middle;whiteSpace=wrap;rounded=0;fontFamily=Lucida Console;fontSize=8;" vertex="1" parent="1">
                    <mxGeometry x="380" y="380.5" width="190" height="30" as="geometry"/>
                </mxCell>
                <mxCell id="52" value="&lt;div style=&quot;text-align: justify;&quot;&gt;state DEAD NONE 0&lt;/div&gt;&lt;div style=&quot;text-align: justify;&quot;&gt;frame 3 0.25 0 0 0 NONE&lt;/div&gt;&lt;div style=&quot;text-align: justify;&quot;&gt;frame 3 0.25 0 0 0 NONE&lt;/div&gt;" style="text;html=1;strokeColor=none;fillColor=none;align=center;verticalAlign=middle;whiteSpace=wrap;rounded=0;fontFamily=Lucida Console;fontSize=8;" vertex="1" parent="1">
                    <mxGeometry x="405" y="483" width="120" height="30" as="geometry"/>
                </mxCell>
                <mxCell id="53" value="" style="endArrow=classic;html=1;fontFamily=Lucida Console;fontSize=8;startArrow=none;exitX=0.5;exitY=1;exitDx=0;exitDy=0;" edge="1" parent="1" source="55" target="50">
                    <mxGeometry width="50" height="50" relative="1" as="geometry">
                        <mxPoint x="390" y="270" as="sourcePoint"/>
                        <mxPoint x="405" y="300" as="targetPoint"/>
                        <Array as="points">
                            <mxPoint x="370" y="306"/>
                            <mxPoint x="386" y="306"/>
                        </Array>
                    </mxGeometry>
                </mxCell>
                <mxCell id="61" value="NO" style="edgeLabel;html=1;align=center;verticalAlign=middle;resizable=0;points=[];fontSize=8;fontFamily=Lucida Console;" vertex="1" connectable="0" parent="53">
                    <mxGeometry x="-0.6425" relative="1" as="geometry">
                        <mxPoint as="offset"/>
                    </mxGeometry>
                </mxCell>
                <mxCell id="54" value="" style="endArrow=classic;html=1;fontFamily=Lucida Console;fontSize=8;exitX=1;exitY=0.5;exitDx=0;exitDy=0;entryX=1;entryY=0.5;entryDx=0;entryDy=0;" edge="1" parent="1" source="50" target="2">
                    <mxGeometry width="50" height="50" relative="1" as="geometry">
                        <mxPoint x="456" y="296" as="sourcePoint"/>
                        <mxPoint x="676" y="196" as="targetPoint"/>
                        <Array as="points">
                            <mxPoint x="676" y="291"/>
                            <mxPoint x="676" y="201"/>
                        </Array>
                    </mxGeometry>
                </mxCell>
                <mxCell id="59" value="NO" style="edgeLabel;html=1;align=center;verticalAlign=middle;resizable=0;points=[];fontSize=8;fontFamily=Lucida Console;" vertex="1" connectable="0" parent="54">
                    <mxGeometry x="0.3695" relative="1" as="geometry">
                        <mxPoint as="offset"/>
                    </mxGeometry>
                </mxCell>
                <mxCell id="64" value="" style="edgeStyle=none;html=1;fontFamily=Lucida Console;fontSize=8;" edge="1" parent="1" source="56">
                    <mxGeometry relative="1" as="geometry">
                        <mxPoint x="650" y="410" as="targetPoint"/>
                        <Array as="points">
                            <mxPoint x="720" y="250"/>
                            <mxPoint x="720" y="410"/>
                        </Array>
                    </mxGeometry>
                </mxCell>
                <mxCell id="65" value="YES" style="edgeLabel;html=1;align=center;verticalAlign=middle;resizable=0;points=[];fontSize=8;fontFamily=Lucida Console;" vertex="1" connectable="0" parent="64">
                    <mxGeometry x="-0.7105" relative="1" as="geometry">
                        <mxPoint as="offset"/>
                    </mxGeometry>
                </mxCell>
                <mxCell id="56" value="DEATH?" style="rhombus;whiteSpace=wrap;html=1;fontFamily=Lucida Console;fontSize=8;" vertex="1" parent="1">
                    <mxGeometry x="656" y="231" width="40" height="40" as="geometry"/>
                </mxCell>
                <mxCell id="57" value="" style="endArrow=none;html=1;fontFamily=Lucida Console;fontSize=8;entryX=0.5;entryY=0;entryDx=0;entryDy=0;" edge="1" parent="1" target="55">
                    <mxGeometry width="50" height="50" relative="1" as="geometry">
                        <mxPoint x="400" y="196" as="sourcePoint"/>
                        <mxPoint x="396" y="304.876811594203" as="targetPoint"/>
                        <Array as="points">
                            <mxPoint x="370" y="196"/>
                        </Array>
                    </mxGeometry>
                </mxCell>
                <mxCell id="55" value="" style="rhombus;whiteSpace=wrap;html=1;fontFamily=Lucida Console;fontSize=8;" vertex="1" parent="1">
                    <mxGeometry x="350" y="235" width="40" height="40" as="geometry"/>
                </mxCell>
                <mxCell id="62" value="" style="edgeStyle=none;html=1;fontFamily=Lucida Console;fontSize=8;exitX=0.167;exitY=0.5;exitDx=0;exitDy=0;exitPerimeter=0;entryX=0.197;entryY=0.993;entryDx=0;entryDy=0;entryPerimeter=0;" edge="1" parent="1" source="58" target="51">
                    <mxGeometry relative="1" as="geometry">
                        <mxPoint x="350" y="390" as="targetPoint"/>
                        <Array as="points">
                            <mxPoint x="350" y="411"/>
                        </Array>
                    </mxGeometry>
                </mxCell>
                <mxCell id="66" value="YES" style="edgeLabel;html=1;align=center;verticalAlign=middle;resizable=0;points=[];fontSize=8;fontFamily=Lucida Console;" vertex="1" connectable="0" parent="62">
                    <mxGeometry x="-0.7698" relative="1" as="geometry">
                        <mxPoint as="offset"/>
                    </mxGeometry>
                </mxCell>
                <mxCell id="58" value="DEATH?" style="text;html=1;strokeColor=none;fillColor=none;align=center;verticalAlign=middle;whiteSpace=wrap;rounded=0;fontFamily=Lucida Console;fontSize=8;" vertex="1" parent="1">
                    <mxGeometry x="340" y="240" width="60" height="30" as="geometry"/>
                </mxCell>
                <mxCell id="70" value="" style="endArrow=classic;html=1;fontFamily=Lucida Console;fontSize=8;exitX=0.5;exitY=1;exitDx=0;exitDy=0;" edge="1" parent="1" source="4">
                    <mxGeometry width="50" height="50" relative="1" as="geometry">
                        <mxPoint x="510" y="570" as="sourcePoint"/>
                        <mxPoint x="650" y="510" as="targetPoint"/>
                        <Array as="points">
                            <mxPoint x="526" y="600"/>
                            <mxPoint x="680" y="600"/>
                            <mxPoint x="680" y="510"/>
                        </Array>
                    </mxGeometry>
                </mxCell>
                <mxCell id="71" value="&lt;font face=&quot;Helvetica&quot;&gt;DECORATION&lt;/font&gt;" style="text;html=1;strokeColor=none;fillColor=none;align=center;verticalAlign=middle;whiteSpace=wrap;rounded=0;fontFamily=Lucida Console;fontSize=18;" vertex="1" parent="1">
                    <mxGeometry x="75" y="70" width="60" height="30" as="geometry"/>
                </mxCell>
                <mxCell id="72" value="2" style="ellipse;whiteSpace=wrap;html=1;fontSize=36;" vertex="1" parent="1">
                    <mxGeometry x="230" y="670" width="50" height="50" as="geometry"/>
                </mxCell>
                <mxCell id="76" value="" style="shape=curlyBracket;whiteSpace=wrap;html=1;rounded=1;flipH=1;labelPosition=right;verticalLabelPosition=middle;align=left;verticalAlign=middle;fontFamily=Helvetica;fontSize=18;" vertex="1" parent="1">
                    <mxGeometry x="730" y="171" width="20" height="429" as="geometry"/>
                </mxCell>
                <mxCell id="79" value="3" style="ellipse;whiteSpace=wrap;html=1;fontSize=36;" vertex="1" parent="1">
                    <mxGeometry x="760" y="360.5" width="50" height="50" as="geometry"/>
                </mxCell>
                <mxCell id="82" value="" style="ellipse;whiteSpace=wrap;html=1;fontFamily=Helvetica;fontSize=11;" vertex="1" parent="1">
                    <mxGeometry x="636" y="160" width="20" height="20" as="geometry"/>
                </mxCell>
                <mxCell id="83" value="3.1" style="text;html=1;strokeColor=none;fillColor=none;align=center;verticalAlign=middle;whiteSpace=wrap;rounded=0;fontFamily=Helvetica;fontSize=11;" vertex="1" parent="1">
                    <mxGeometry x="636" y="160" width="20" height="20" as="geometry"/>
                </mxCell>
                <mxCell id="86" value="" style="ellipse;whiteSpace=wrap;html=1;fontFamily=Helvetica;fontSize=11;" vertex="1" parent="1">
                    <mxGeometry x="636" y="261" width="20" height="20" as="geometry"/>
                </mxCell>
                <mxCell id="87" value="3.2" style="text;html=1;strokeColor=none;fillColor=none;align=center;verticalAlign=middle;whiteSpace=wrap;rounded=0;fontFamily=Helvetica;fontSize=11;" vertex="1" parent="1">
                    <mxGeometry x="636" y="261" width="20" height="20" as="geometry"/>
                </mxCell>
                <mxCell id="88" value="" style="ellipse;whiteSpace=wrap;html=1;fontFamily=Helvetica;fontSize=11;" vertex="1" parent="1">
                    <mxGeometry x="636" y="365" width="20" height="20" as="geometry"/>
                </mxCell>
                <mxCell id="89" value="3.3" style="text;html=1;strokeColor=none;fillColor=none;align=center;verticalAlign=middle;whiteSpace=wrap;rounded=0;fontFamily=Helvetica;fontSize=11;" vertex="1" parent="1">
                    <mxGeometry x="636" y="365" width="20" height="20" as="geometry"/>
                </mxCell>
                <mxCell id="90" value="" style="ellipse;whiteSpace=wrap;html=1;fontFamily=Helvetica;fontSize=11;" vertex="1" parent="1">
                    <mxGeometry x="636" y="470" width="20" height="20" as="geometry"/>
                </mxCell>
                <mxCell id="91" value="3.4" style="text;html=1;strokeColor=none;fillColor=none;align=center;verticalAlign=middle;whiteSpace=wrap;rounded=0;fontFamily=Helvetica;fontSize=11;" vertex="1" parent="1">
                    <mxGeometry x="636" y="470" width="20" height="20" as="geometry"/>
                </mxCell>
                <mxCell id="92" value="&lt;h1&gt;1&lt;/h1&gt;&lt;div&gt;before anything happens images and sounds are loaded&lt;/div&gt;" style="text;html=1;strokeColor=none;fillColor=none;spacing=5;spacingTop=-20;whiteSpace=wrap;overflow=hidden;rounded=0;fontFamily=Helvetica;fontSize=11;" vertex="1" parent="1">
                    <mxGeometry x="820" y="30" width="190" height="120" as="geometry"/>
                </mxCell>
                <mxCell id="93" value="&lt;h1&gt;2&lt;/h1&gt;&lt;div&gt;FSM enters in the first state which is the idle state.&lt;/div&gt;" style="text;html=1;strokeColor=none;fillColor=none;spacing=5;spacingTop=-20;whiteSpace=wrap;overflow=hidden;rounded=0;fontFamily=Helvetica;fontSize=11;" vertex="1" parent="1">
                    <mxGeometry x="820" y="126" width="190" height="99" as="geometry"/>
                </mxCell>
                <mxCell id="94" value="&lt;h1&gt;3.1&lt;/h1&gt;&lt;div&gt;FSM goes through the first three frames shown for two seconds each.&amp;nbsp;&lt;/div&gt;&lt;br&gt;On the second frame plays the first sound loaded, `meow.wav`&lt;div&gt;and then goes to the fleece scratch state.&lt;/div&gt;" style="text;html=1;strokeColor=none;fillColor=none;spacing=5;spacingTop=-20;whiteSpace=wrap;overflow=hidden;rounded=0;fontFamily=Helvetica;fontSize=11;" vertex="1" parent="1">
                    <mxGeometry x="820" y="201.5" width="190" height="139" as="geometry"/>
                </mxCell>
                <mxCell id="95" value="&lt;h1&gt;3.2&lt;/h1&gt;&lt;div&gt;Fsm will show one frame for two seconds.&lt;/div&gt;&lt;div&gt;&lt;br&gt;&lt;/div&gt;&lt;div&gt;Then on the next frame spawn 1(ONE) flea image as a particle With a lifetime of 3000 milliseconds&amp;nbsp;&lt;span style=&quot;background-color: initial;&quot;&gt;at location&amp;nbsp;&lt;/span&gt;&lt;/div&gt;&lt;div&gt;&lt;font face=&quot;Lucida Console&quot;&gt;X:0,Y: 64, Z:0&amp;nbsp;&lt;/font&gt;&lt;/div&gt;&lt;div&gt;with&amp;nbsp;&lt;span style=&quot;background-color: initial;&quot;&gt;velocity&amp;nbsp;&lt;/span&gt;&lt;/div&gt;&lt;div&gt;&lt;font face=&quot;Lucida Console&quot;&gt;VX:0,VY,64,VZ:0&lt;/font&gt;&lt;/div&gt;" style="text;html=1;strokeColor=none;fillColor=none;spacing=5;spacingTop=-20;whiteSpace=wrap;overflow=hidden;rounded=0;fontFamily=Helvetica;fontSize=11;" vertex="1" parent="1">
                    <mxGeometry x="820" y="340" width="190" height="210" as="geometry"/>
                </mxCell>
                <mxCell id="96" value="&lt;h1&gt;3.3&lt;/h1&gt;&lt;div&gt;At any point if the decoration runs out of HP the death state will be triggered and will transition to the death state&lt;/div&gt;&lt;div&gt;&lt;br&gt;&lt;/div&gt;&lt;div&gt;Again play this frame two for 3 frames at point 166 second sage. And on the second frame play sound one loaded `bell.wav`&amp;nbsp;&lt;/div&gt;" style="text;html=1;strokeColor=none;fillColor=none;spacing=5;spacingTop=-20;whiteSpace=wrap;overflow=hidden;rounded=0;fontFamily=Helvetica;fontSize=11;" vertex="1" parent="1">
                    <mxGeometry x="820" y="520" width="190" height="170" as="geometry"/>
                </mxCell>
                <mxCell id="97" value="&lt;h1&gt;3.4&lt;/h1&gt;&lt;div&gt;After the death state animation plays through the FSM will be on the dead state and will loop on this forever&lt;/div&gt;" style="text;html=1;strokeColor=none;fillColor=none;spacing=5;spacingTop=-20;whiteSpace=wrap;overflow=hidden;rounded=0;fontFamily=Helvetica;fontSize=11;" vertex="1" parent="1">
                    <mxGeometry x="820" y="700" width="190" height="120" as="geometry"/>
                </mxCell>
            </root>
        </mxGraphModel>
    </diagram>
</mxfile>